<svg xmlns="http://www.w3.org/2000/svg" width="49" height="50" viewBox="0 0 49 50">
  <defs>
    <style>
      .cls-1 {
        fill-rule: evenodd;
      }
    </style>
  </defs>
  <path id="cat-icon-06.svg" class="cls-1" d="M1615.06,805.352a0.977,0.977,0,1,0,.96.976A0.96,0.96,0,0,0,1615.06,805.352Zm23.55,31.543h-4.25a14.5,14.5,0,0,0,5.04-4.634,0.977,0.977,0,0,0,.05-1,0.956,0.956,0,0,0-.84-0.516h-1.76A23.944,23.944,0,0,0,1639.56,820c0-13.482-11.28-25-24.5-25-13.2,0-24.5,11.494-24.5,25a23.944,23.944,0,0,0,2.71,10.742h-1.75a0.971,0.971,0,0,0-.85.516,1.023,1.023,0,0,0,.05,1,14.669,14.669,0,0,0,5.03,4.635h-4.23a0.972,0.972,0,0,0-.85.515,1.025,1.025,0,0,0,.05,1,15.036,15.036,0,0,0,12.1,6.587h24.48a15.128,15.128,0,0,0,12.1-6.587,0.977,0.977,0,0,0,.05-1A0.956,0.956,0,0,0,1638.61,836.9ZM1592.48,820c0-12.493,10.34-23.047,22.58-23.047s22.59,10.554,22.59,23.047a22.55,22.55,0,0,1-2.96,10.742h-4.79A18.509,18.509,0,0,0,1633.53,820c0-10.217-8.46-18.848-18.47-18.848s-18.47,8.631-18.47,18.848a18.509,18.509,0,0,0,3.63,10.742h-4.78A22.437,22.437,0,0,1,1592.48,820Zm34.98,10.742h-24.79A16.827,16.827,0,0,1,1598.51,820c0-9.158,7.58-16.895,16.55-16.895s16.56,7.737,16.56,16.895A16.882,16.882,0,0,1,1627.46,830.742Zm-33.95,1.944h43.11a13.273,13.273,0,0,1-9.32,4.209h-24.48A13.339,13.339,0,0,1,1593.51,832.686Zm33.79,10.361h-24.48a13.335,13.335,0,0,1-9.31-4.209h43.11A13.269,13.269,0,0,1,1627.3,843.047Zm-8.18-37.1a0.958,0.958,0,0,0-1.19.66,0.979,0.979,0,0,0,.65,1.213A12.744,12.744,0,0,1,1627.5,820a0.96,0.96,0,1,0,1.92,0A14.634,14.634,0,0,0,1619.12,805.948Z" transform="translate(-1590.56 -795)"/>
</svg>
