<?xml version="1.0" standalone="no"?>
<!DOCTYPE svg PUBLIC "-//W3C//DTD SVG 20010904//EN"
 "http://www.w3.org/TR/2001/REC-SVG-20010904/DTD/svg10.dtd">
<svg version="1.0" xmlns="http://www.w3.org/2000/svg"
 width="27.000000pt" height="34.000000pt" viewBox="0 0 27.000000 34.000000"
 preserveAspectRatio="xMidYMid meet">

<g transform="translate(0.000000,34.000000) scale(0.100000,-0.100000)"
fill="#000000" stroke="none">
<path d="M115 330 c-3 -5 -15 -10 -25 -10 -24 0 -70 -45 -70 -68 0 -10 -6 -24
-12 -30 -10 -10 -10 -17 0 -32 6 -11 12 -28 12 -39 0 -11 5 -21 12 -23 11 -4
8 -19 -17 -80 -6 -15 -2 -18 19 -18 15 0 29 -7 32 -15 9 -23 19 -18 37 20 21
44 43 44 64 0 18 -38 28 -43 37 -20 3 8 17 15 31 15 30 0 30 0 6 51 -17 34
-17 41 -5 46 8 3 14 15 14 27 0 12 6 28 12 34 10 10 10 17 0 32 -6 11 -12 26
-12 34 0 21 -47 66 -70 66 -10 0 -22 5 -25 10 -3 6 -12 10 -20 10 -8 0 -17 -4
-20 -10z m102 -48 c21 -21 26 -35 26 -77 0 -43 -5 -56 -28 -80 -24 -23 -37
-28 -80 -28 -42 0 -56 5 -78 27 -15 15 -27 35 -27 46 0 10 -5 22 -11 26 -8 4
-8 9 0 17 6 6 11 19 11 29 0 23 43 65 72 71 42 8 89 -5 115 -31z m-107 -199
c0 -4 -20 -44 -25 -51 -1 -1 -13 3 -27 11 -20 10 -23 17 -17 33 6 17 14 20 38
16 17 -2 31 -6 31 -9z m119 -5 c7 -18 3 -25 -17 -35 -14 -8 -26 -12 -27 -11
-6 7 -25 47 -25 52 0 2 12 7 28 9 15 2 28 5 30 6 1 0 6 -9 11 -21z"/>
<path d="M76 265 c-56 -52 -19 -145 59 -145 77 0 114 89 59 144 -35 34 -82 35
-118 1z m114 -11 c7 -7 14 -30 14 -50 0 -68 -72 -97 -119 -49 -27 26 -30 41
-15 80 17 44 83 55 120 19z"/>
</g>
</svg>
